<svg width="105" height="38" viewBox="0 0 105 38" fill="none" xmlns="http://www.w3.org/2000/svg">
<rect x="0.5" y="0.5" width="104" height="37" rx="18.5" fill="url(#paint0_linear_181_867)"/>
<rect x="0.5" y="0.5" width="104" height="37" rx="18.5" stroke="url(#paint1_linear_181_867)"/>
<path d="M25.407 24.156C24.6443 24.156 23.99 23.9827 23.444 23.636C22.898 23.2807 22.4777 22.7607 22.183 22.076C21.897 21.3827 21.754 20.529 21.754 19.515C21.754 18.501 21.897 17.643 22.183 16.941C22.4777 16.2303 22.898 15.693 23.444 15.329C23.99 14.9563 24.6443 14.77 25.407 14.77C26.161 14.77 26.798 14.9433 27.318 15.29C27.838 15.6367 28.241 16.1263 28.527 16.759L27.643 17.292C27.461 16.824 27.1837 16.4513 26.811 16.174C26.4383 15.888 25.9703 15.745 25.407 15.745C24.627 15.745 24.016 16.031 23.574 16.603C23.1407 17.1663 22.924 17.9117 22.924 18.839V20.191C22.924 21.1183 23.1407 21.8507 23.574 22.388C24.016 22.9167 24.627 23.181 25.407 23.181C25.9877 23.181 26.473 23.0337 26.863 22.739C27.253 22.4357 27.539 22.037 27.721 21.543L28.592 22.089C28.306 22.7217 27.89 23.2243 27.344 23.597C26.8067 23.9697 26.161 24.156 25.407 24.156ZM32.7142 24.156C32.1162 24.156 31.5876 24.013 31.1282 23.727C30.6776 23.4323 30.3222 23.025 30.0622 22.505C29.8109 21.9763 29.6852 21.3567 29.6852 20.646C29.6852 19.9353 29.8109 19.32 30.0622 18.8C30.3222 18.2713 30.6776 17.864 31.1282 17.578C31.5876 17.2833 32.1162 17.136 32.7142 17.136C33.3122 17.136 33.8366 17.2833 34.2872 17.578C34.7466 17.864 35.1019 18.2713 35.3532 18.8C35.6132 19.32 35.7432 19.9353 35.7432 20.646C35.7432 21.3567 35.6132 21.9763 35.3532 22.505C35.1019 23.025 34.7466 23.4323 34.2872 23.727C33.8366 24.013 33.3122 24.156 32.7142 24.156ZM32.7142 23.233C33.2776 23.233 33.7369 23.0597 34.0922 22.713C34.4476 22.3663 34.6252 21.8377 34.6252 21.127V20.165C34.6252 19.4543 34.4476 18.9257 34.0922 18.579C33.7369 18.2323 33.2776 18.059 32.7142 18.059C32.1596 18.059 31.7002 18.2323 31.3362 18.579C30.9809 18.9257 30.8032 19.4543 30.8032 20.165V21.127C30.8032 21.8377 30.9809 22.3663 31.3362 22.713C31.7002 23.0597 32.1596 23.233 32.7142 23.233ZM38.4936 24H37.4536V17.292H38.4936V18.384H38.5456C38.7103 18.0027 38.94 17.6993 39.2346 17.474C39.538 17.2487 39.941 17.136 40.4436 17.136C41.137 17.136 41.683 17.3613 42.0816 17.812C42.489 18.254 42.6926 18.8823 42.6926 19.697V24H41.6526V19.879C41.6526 19.281 41.5226 18.8303 41.2626 18.527C41.0113 18.2237 40.6343 18.072 40.1316 18.072C39.8543 18.072 39.59 18.1197 39.3386 18.215C39.0873 18.3017 38.8836 18.4403 38.7276 18.631C38.5716 18.8217 38.4936 19.06 38.4936 19.346V24ZM47.6243 24H46.3243C45.969 24 45.696 23.896 45.5053 23.688C45.3146 23.48 45.2193 23.2157 45.2193 22.895V18.202H44.1143V17.292H44.7383C44.9636 17.292 45.1153 17.2487 45.1933 17.162C45.28 17.0667 45.3233 16.9063 45.3233 16.681V15.433H46.2593V17.292H47.7283V18.202H46.2593V23.09H47.6243V24ZM54.8599 24H54.2749C53.9976 24 53.7723 23.9437 53.5989 23.831C53.4256 23.7097 53.2999 23.545 53.2219 23.337C53.1439 23.129 53.1049 22.8907 53.1049 22.622V22.531L53.5079 22.908H53.0529C52.9143 23.3153 52.6716 23.6273 52.3249 23.844C51.9869 24.052 51.5839 24.156 51.1159 24.156C50.4053 24.156 49.8506 23.974 49.4519 23.61C49.0619 23.246 48.8669 22.752 48.8669 22.128C48.8669 21.7033 48.9709 21.348 49.1789 21.062C49.3869 20.7673 49.6989 20.5463 50.1149 20.399C50.5396 20.243 51.0769 20.165 51.7269 20.165H53.0529V19.502C53.0529 19.0253 52.9229 18.6613 52.6629 18.41C52.4029 18.1587 52.0043 18.033 51.4669 18.033C51.0683 18.033 50.7303 18.124 50.4529 18.306C50.1756 18.488 49.9459 18.7307 49.7639 19.034L49.1399 18.449C49.3219 18.0937 49.6123 17.786 50.0109 17.526C50.4096 17.266 50.9123 17.136 51.5189 17.136C52.3249 17.136 52.9533 17.3353 53.4039 17.734C53.8633 18.1327 54.0929 18.6873 54.0929 19.398V23.09H54.8599V24ZM53.0529 20.945H51.6749C51.0856 20.945 50.6523 21.0317 50.3749 21.205C50.0976 21.3783 49.9589 21.6297 49.9589 21.959V22.232C49.9589 22.5613 50.0803 22.817 50.3229 22.999C50.5656 23.181 50.8863 23.272 51.2849 23.272C51.6316 23.272 51.9349 23.22 52.1949 23.116C52.4636 23.0033 52.6716 22.856 52.8189 22.674C52.9749 22.4833 53.0529 22.2753 53.0529 22.05V20.945ZM58.8403 24.156C57.8956 24.156 57.1589 23.8397 56.6303 23.207C56.1103 22.5743 55.8503 21.7207 55.8503 20.646C55.8503 19.5713 56.1103 18.7177 56.6303 18.085C57.1589 17.4523 57.8956 17.136 58.8403 17.136C59.5076 17.136 60.0449 17.2833 60.4523 17.578C60.8596 17.8727 61.1586 18.2497 61.3493 18.709L60.4783 19.151C60.3569 18.8043 60.1533 18.5357 59.8673 18.345C59.5899 18.1543 59.2476 18.059 58.8403 18.059C58.2249 18.059 57.7569 18.2497 57.4363 18.631C57.1243 19.0037 56.9683 19.4847 56.9683 20.074V21.218C56.9683 21.7987 57.1243 22.2797 57.4363 22.661C57.7569 23.0423 58.2249 23.233 58.8403 23.233C59.2649 23.233 59.6289 23.1333 59.9323 22.934C60.2356 22.7347 60.4783 22.4443 60.6603 22.063L61.4143 22.57C61.1976 23.0467 60.8726 23.4323 60.4393 23.727C60.0146 24.013 59.4816 24.156 58.8403 24.156ZM65.6643 24H64.3643C64.009 24 63.736 23.896 63.5453 23.688C63.3547 23.48 63.2593 23.2157 63.2593 22.895V18.202H62.1543V17.292H62.7783C63.0037 17.292 63.1553 17.2487 63.2333 17.162C63.32 17.0667 63.3633 16.9063 63.3633 16.681V15.433H64.2993V17.292H65.7683V18.202H64.2993V23.09H65.6643V24ZM74.6462 24V22.908H74.5942C74.4642 23.2287 74.2562 23.519 73.9702 23.779C73.6929 24.0303 73.2726 24.156 72.7092 24.156C72.0246 24.156 71.4742 23.935 71.0582 23.493C70.6509 23.0423 70.4472 22.4097 70.4472 21.595V17.292H71.4872V21.413C71.4872 22.011 71.6172 22.4617 71.8772 22.765C72.1372 23.0683 72.5186 23.22 73.0212 23.22C73.2986 23.22 73.5586 23.1767 73.8012 23.09C74.0526 22.9947 74.2562 22.8517 74.4122 22.661C74.5682 22.4703 74.6462 22.2277 74.6462 21.933V17.292H75.6862V24H74.6462ZM79.9159 24.156C79.3006 24.156 78.7806 24.039 78.3559 23.805C77.9312 23.5623 77.5672 23.2417 77.2639 22.843L78.0049 22.245C78.2649 22.5657 78.5552 22.817 78.8759 22.999C79.1966 23.181 79.5692 23.272 79.9939 23.272C80.4359 23.272 80.7782 23.1767 81.0209 22.986C81.2722 22.7953 81.3979 22.5267 81.3979 22.18C81.3979 21.92 81.3112 21.6947 81.1379 21.504C80.9732 21.3133 80.6699 21.1877 80.2279 21.127L79.6949 21.049C79.2876 20.9883 78.9192 20.8887 78.5899 20.75C78.2606 20.6027 78.0006 20.399 77.8099 20.139C77.6279 19.8703 77.5369 19.528 77.5369 19.112C77.5369 18.4447 77.7622 17.9507 78.2129 17.63C78.6722 17.3007 79.2442 17.136 79.9289 17.136C80.2929 17.136 80.6136 17.1793 80.8909 17.266C81.1769 17.3527 81.4326 17.4783 81.6579 17.643C81.8832 17.799 82.0869 17.9897 82.2689 18.215L81.5799 18.839C81.4326 18.631 81.2159 18.4447 80.9299 18.28C80.6439 18.1067 80.2842 18.02 79.8509 18.02C79.4262 18.02 79.1012 18.1153 78.8759 18.306C78.6506 18.488 78.5379 18.7393 78.5379 19.06C78.5379 19.3807 78.6462 19.619 78.8629 19.775C79.0882 19.9223 79.4089 20.0307 79.8249 20.1L80.3449 20.178C81.0902 20.2907 81.6189 20.5073 81.9309 20.828C82.2429 21.14 82.3989 21.5517 82.3989 22.063C82.3989 22.4963 82.2992 22.869 82.0999 23.181C81.9006 23.493 81.6146 23.7357 81.2419 23.909C80.8692 24.0737 80.4272 24.156 79.9159 24.156Z" fill="#E9F3FC"/>
<defs>
<linearGradient id="paint0_linear_181_867" x1="26.469" y1="-145.098" x2="134.796" y2="-125.336" gradientUnits="userSpaceOnUse">
<stop offset="0.0487" stop-color="#170D02" stop-opacity="0.57"/>
<stop offset="0.7588" stop-color="#071A2C"/>
</linearGradient>
<linearGradient id="paint1_linear_181_867" x1="75.3051" y1="8.56406" x2="65.7502" y2="42.5924" gradientUnits="userSpaceOnUse">
<stop stop-color="#9DE8EE"/>
<stop offset="0.0001" stop-color="#9DE8EE"/>
<stop offset="0.490049" stop-color="#FA7C0B"/>
<stop offset="1" stop-color="#9F8CED"/>
</linearGradient>
</defs>
</svg>
