<svg width="122" height="48" viewBox="0 0 122 48" fill="none" xmlns="http://www.w3.org/2000/svg">
<rect x="0.5" y="0.5" width="121" height="47" rx="23.5" fill="url(#paint0_linear_2005_238)"/>
<rect x="0.5" y="0.5" width="121" height="47" rx="23.5" stroke="url(#paint1_linear_2005_238)"/>
<path d="M29.8974 30.192C28.9908 30.192 28.2174 30.0213 27.5774 29.68C26.9374 29.328 26.3934 28.848 25.9454 28.24L26.9374 27.408C27.3321 27.9307 27.7694 28.3307 28.2494 28.608C28.7294 28.8747 29.2948 29.008 29.9454 29.008C30.7454 29.008 31.3534 28.816 31.7694 28.432C32.1961 28.048 32.4094 27.536 32.4094 26.896C32.4094 26.3627 32.2494 25.952 31.9294 25.664C31.6094 25.376 31.0814 25.1467 30.3454 24.976L29.4334 24.768C28.4094 24.5333 27.6254 24.1813 27.0814 23.712C26.5481 23.232 26.2814 22.56 26.2814 21.696C26.2814 21.2053 26.3721 20.768 26.5534 20.384C26.7348 20 26.9854 19.68 27.3054 19.424C27.6361 19.168 28.0254 18.976 28.4734 18.848C28.9321 18.7093 29.4334 18.64 29.9774 18.64C30.8201 18.64 31.5401 18.7947 32.1374 19.104C32.7454 19.4133 33.2574 19.8667 33.6734 20.464L32.6654 21.2C32.3561 20.7733 31.9828 20.4373 31.5454 20.192C31.1081 19.9467 30.5641 19.824 29.9134 19.824C29.1988 19.824 28.6334 19.9787 28.2174 20.288C27.8121 20.5867 27.6094 21.04 27.6094 21.648C27.6094 22.1813 27.7801 22.5867 28.1214 22.864C28.4734 23.1307 29.0014 23.344 29.7054 23.504L30.6174 23.712C31.7161 23.9573 32.5108 24.3307 33.0014 24.832C33.4921 25.3333 33.7374 26 33.7374 26.832C33.7374 27.344 33.6468 27.808 33.4654 28.224C33.2948 28.64 33.0441 28.992 32.7134 29.28C32.3828 29.568 31.9774 29.792 31.4974 29.952C31.0281 30.112 30.4948 30.192 29.8974 30.192ZM41.0183 28.656H40.9543C40.869 28.848 40.7623 29.04 40.6343 29.232C40.517 29.4133 40.3676 29.5787 40.1863 29.728C40.005 29.8667 39.7863 29.9787 39.5303 30.064C39.2743 30.1493 38.9756 30.192 38.6343 30.192C37.781 30.192 37.1036 29.92 36.6023 29.376C36.101 28.8213 35.8503 28.0427 35.8503 27.04V21.744H37.1303V26.816C37.1303 28.2987 37.7596 29.04 39.0183 29.04C39.2743 29.04 39.5196 29.008 39.7543 28.944C39.9996 28.88 40.213 28.784 40.3943 28.656C40.5863 28.528 40.7356 28.368 40.8423 28.176C40.9596 27.9733 41.0183 27.7333 41.0183 27.456V21.744H42.2983V30H41.0183V28.656ZM45.0241 18.16H46.3041V23.088H46.3681C46.5814 22.5653 46.8907 22.1813 47.2961 21.936C47.7121 21.68 48.2081 21.552 48.7841 21.552C49.2961 21.552 49.7601 21.6533 50.1761 21.856C50.5921 22.0587 50.9441 22.3467 51.2321 22.72C51.5307 23.0933 51.7547 23.5467 51.9041 24.08C52.0641 24.6133 52.1441 25.2107 52.1441 25.872C52.1441 26.5333 52.0641 27.1307 51.9041 27.664C51.7547 28.1973 51.5307 28.6507 51.2321 29.024C50.9441 29.3973 50.5921 29.6853 50.1761 29.888C49.7601 30.0907 49.2961 30.192 48.7841 30.192C47.6641 30.192 46.8587 29.68 46.3681 28.656H46.3041V30H45.0241V18.16ZM48.4321 29.04C49.1574 29.04 49.7281 28.816 50.1441 28.368C50.5601 27.9093 50.7681 27.312 50.7681 26.576V25.168C50.7681 24.432 50.5601 23.84 50.1441 23.392C49.7281 22.9333 49.1574 22.704 48.4321 22.704C48.1441 22.704 47.8667 22.7467 47.6001 22.832C47.3441 22.9067 47.1201 23.0133 46.9281 23.152C46.7361 23.2907 46.5814 23.4613 46.4641 23.664C46.3574 23.856 46.3041 24.064 46.3041 24.288V27.36C46.3041 27.6267 46.3574 27.8667 46.4641 28.08C46.5814 28.2827 46.7361 28.4587 46.9281 28.608C47.1201 28.7467 47.3441 28.8533 47.6001 28.928C47.8667 29.0027 48.1441 29.04 48.4321 29.04ZM56.7853 30.192C56.0173 30.192 55.372 30.048 54.8493 29.76C54.3373 29.4613 53.8946 29.0667 53.5213 28.576L54.4333 27.84C54.7533 28.2453 55.1106 28.56 55.5053 28.784C55.9 28.9973 56.3586 29.104 56.8813 29.104C57.4253 29.104 57.8466 28.9867 58.1453 28.752C58.4546 28.5173 58.6093 28.1867 58.6093 27.76C58.6093 27.44 58.5026 27.168 58.2893 26.944C58.0866 26.7093 57.7133 26.5493 57.1693 26.464L56.5133 26.368C56.1293 26.3147 55.7773 26.2347 55.4573 26.128C55.1373 26.0107 54.8546 25.8613 54.6093 25.68C54.3746 25.488 54.188 25.2533 54.0493 24.976C53.9213 24.6987 53.8573 24.368 53.8573 23.984C53.8573 23.5787 53.932 23.2267 54.0813 22.928C54.2306 22.6187 54.4333 22.3627 54.6893 22.16C54.956 21.9573 55.2706 21.808 55.6333 21.712C55.996 21.6053 56.3853 21.552 56.8013 21.552C57.4733 21.552 58.0333 21.6693 58.4813 21.904C58.94 22.1387 59.34 22.464 59.6813 22.88L58.8333 23.648C58.652 23.392 58.3853 23.1627 58.0333 22.96C57.6813 22.7467 57.2386 22.64 56.7053 22.64C56.172 22.64 55.7666 22.7573 55.4893 22.992C55.2226 23.216 55.0893 23.5253 55.0893 23.92C55.0893 24.3253 55.2226 24.6187 55.4893 24.8C55.7666 24.9813 56.1613 25.1147 56.6733 25.2L57.3133 25.296C58.2306 25.4347 58.8813 25.7013 59.2653 26.096C59.6493 26.48 59.8413 26.9867 59.8413 27.616C59.8413 28.416 59.5693 29.0453 59.0253 29.504C58.4813 29.9627 57.7346 30.192 56.7853 30.192ZM65.1742 30.192C64.5982 30.192 64.0809 30.0907 63.6222 29.888C63.1635 29.6853 62.7742 29.3973 62.4542 29.024C62.1449 28.6507 61.9049 28.1973 61.7342 27.664C61.5742 27.1307 61.4942 26.5333 61.4942 25.872C61.4942 25.2107 61.5742 24.6133 61.7342 24.08C61.9049 23.5467 62.1449 23.0933 62.4542 22.72C62.7742 22.3467 63.1635 22.0587 63.6222 21.856C64.0809 21.6533 64.5982 21.552 65.1742 21.552C65.9955 21.552 66.6515 21.7333 67.1422 22.096C67.6435 22.448 68.0169 22.912 68.2622 23.488L67.1902 24.032C67.0409 23.6053 66.7955 23.2747 66.4542 23.04C66.1129 22.8053 65.6862 22.688 65.1742 22.688C64.7902 22.688 64.4542 22.752 64.1662 22.88C63.8782 22.9973 63.6382 23.168 63.4462 23.392C63.2542 23.6053 63.1102 23.8667 63.0142 24.176C62.9182 24.4747 62.8702 24.8053 62.8702 25.168V26.576C62.8702 27.3013 63.0622 27.8987 63.4462 28.368C63.8409 28.8267 64.4169 29.056 65.1742 29.056C66.2089 29.056 66.9555 28.576 67.4142 27.616L68.3422 28.24C68.0755 28.8373 67.6755 29.312 67.1422 29.664C66.6195 30.016 65.9635 30.192 65.1742 30.192ZM70.1491 30V21.744H71.4291V23.264H71.5091C71.6584 22.8693 71.9251 22.5173 72.3091 22.208C72.6931 21.8987 73.2211 21.744 73.8931 21.744H74.3891V23.024H73.6371C72.9437 23.024 72.3997 23.1573 72.0051 23.424C71.6211 23.68 71.4291 24.0053 71.4291 24.4V30H70.1491ZM76.6641 19.808C76.3867 19.808 76.1841 19.744 76.0561 19.616C75.9387 19.4773 75.8801 19.3013 75.8801 19.088V18.88C75.8801 18.6667 75.9387 18.496 76.0561 18.368C76.1841 18.2293 76.3867 18.16 76.6641 18.16C76.9414 18.16 77.1387 18.2293 77.2561 18.368C77.3841 18.496 77.4481 18.6667 77.4481 18.88V19.088C77.4481 19.3013 77.3841 19.4773 77.2561 19.616C77.1387 19.744 76.9414 19.808 76.6641 19.808ZM76.0241 21.744H77.3041V30H76.0241V21.744ZM80.0241 18.16H81.3041V23.088H81.3681C81.5814 22.5653 81.8907 22.1813 82.2961 21.936C82.7121 21.68 83.2081 21.552 83.7841 21.552C84.2961 21.552 84.7601 21.6533 85.1761 21.856C85.5921 22.0587 85.9441 22.3467 86.2321 22.72C86.5307 23.0933 86.7547 23.5467 86.9041 24.08C87.0641 24.6133 87.1441 25.2107 87.1441 25.872C87.1441 26.5333 87.0641 27.1307 86.9041 27.664C86.7547 28.1973 86.5307 28.6507 86.2321 29.024C85.9441 29.3973 85.5921 29.6853 85.1761 29.888C84.7601 30.0907 84.2961 30.192 83.7841 30.192C82.6641 30.192 81.8587 29.68 81.3681 28.656H81.3041V30H80.0241V18.16ZM83.4321 29.04C84.1574 29.04 84.7281 28.816 85.1441 28.368C85.5601 27.9093 85.7681 27.312 85.7681 26.576V25.168C85.7681 24.432 85.5601 23.84 85.1441 23.392C84.7281 22.9333 84.1574 22.704 83.4321 22.704C83.1441 22.704 82.8667 22.7467 82.6001 22.832C82.3441 22.9067 82.1201 23.0133 81.9281 23.152C81.7361 23.2907 81.5814 23.4613 81.4641 23.664C81.3574 23.856 81.3041 24.064 81.3041 24.288V27.36C81.3041 27.6267 81.3574 27.8667 81.4641 28.08C81.5814 28.2827 81.7361 28.4587 81.9281 28.608C82.1201 28.7467 82.3441 28.8533 82.6001 28.928C82.8667 29.0027 83.1441 29.04 83.4321 29.04ZM92.4093 30.192C91.844 30.192 91.332 30.0907 90.8733 29.888C90.4253 29.6853 90.036 29.3973 89.7053 29.024C89.3853 28.64 89.1346 28.1867 88.9533 27.664C88.7826 27.1307 88.6973 26.5333 88.6973 25.872C88.6973 25.2213 88.7826 24.6293 88.9533 24.096C89.1346 23.5627 89.3853 23.1093 89.7053 22.736C90.036 22.352 90.4253 22.0587 90.8733 21.856C91.332 21.6533 91.844 21.552 92.4093 21.552C92.964 21.552 93.46 21.6533 93.8973 21.856C94.3346 22.0587 94.708 22.3413 95.0173 22.704C95.3266 23.056 95.5613 23.4773 95.7213 23.968C95.892 24.4587 95.9773 24.9973 95.9773 25.584V26.192H90.0413V26.576C90.0413 26.928 90.0946 27.2587 90.2013 27.568C90.3186 27.8667 90.4786 28.128 90.6813 28.352C90.8946 28.576 91.1506 28.752 91.4493 28.88C91.7586 29.008 92.1053 29.072 92.4893 29.072C93.012 29.072 93.4653 28.9493 93.8493 28.704C94.244 28.4587 94.548 28.1067 94.7613 27.648L95.6733 28.304C95.4066 28.8693 94.9906 29.328 94.4253 29.68C93.86 30.0213 93.188 30.192 92.4093 30.192ZM92.4093 22.624C92.0573 22.624 91.7373 22.688 91.4493 22.816C91.1613 22.9333 90.9106 23.104 90.6973 23.328C90.4946 23.552 90.3346 23.8187 90.2173 24.128C90.1 24.4267 90.0413 24.7573 90.0413 25.12V25.232H94.6013V25.056C94.6013 24.32 94.3986 23.7333 93.9933 23.296C93.5986 22.848 93.0706 22.624 92.4093 22.624Z" fill="#FDF3E8"/>
<defs>
<linearGradient id="paint0_linear_2005_238" x1="30.7544" y1="-183.281" x2="157.247" y2="-162.056" gradientUnits="userSpaceOnUse">
<stop offset="0.0487" stop-color="#170D02" stop-opacity="0.57"/>
<stop offset="0.7588" stop-color="#071A2C"/>
</linearGradient>
<linearGradient id="paint1_linear_2005_238" x1="87.4974" y1="10.8178" x2="74.5484" y2="53.2371" gradientUnits="userSpaceOnUse">
<stop stop-color="#9DE8EE"/>
<stop offset="0.0001" stop-color="#9DE8EE"/>
<stop offset="0.490049" stop-color="#FA7C0B"/>
<stop offset="1" stop-color="#9F8CED"/>
</linearGradient>
</defs>
</svg>
