<svg width="28" height="28" viewBox="0 0 28 28" fill="none" xmlns="http://www.w3.org/2000/svg">
<path d="M0.744923 22.6186C-0.224365 23.5545 -0.25146 25.0989 0.684404 26.0682C1.62027 27.0375 3.1647 27.0646 4.13398 26.1287L2.43945 24.3737L0.744923 22.6186ZM27.1968 2.86799C27.2204 1.52084 26.1475 0.409608 24.8003 0.385974L2.84733 0.000832796C1.50019 -0.0228014 0.388951 1.05012 0.365317 2.39726C0.341683 3.74441 1.4146 4.85564 2.76175 4.87928L22.2755 5.22162L21.9332 24.7354C21.9095 26.0825 22.9825 27.1938 24.3296 27.2174C25.6767 27.241 26.788 26.1681 26.8116 24.821L27.1968 2.86799ZM2.43945 24.3737L4.13398 26.1287L26.4521 4.58024L24.7575 2.8252L23.063 1.07015L0.744923 22.6186L2.43945 24.3737Z" fill="#071C2F"/>
</svg>
