<svg width="364" height="246" viewBox="0 0 364 246" fill="none" xmlns="http://www.w3.org/2000/svg">
<g clip-path="url(#clip0_249_739)">
<path d="M75.2679 148.195C115.008 148.195 147.223 115.766 147.223 75.7643C147.223 35.7621 115.008 3.33398 75.2679 3.33398C35.528 3.33398 3.3125 35.7621 3.3125 75.7643C3.3125 115.766 35.528 148.195 75.2679 148.195Z" stroke="#E98214" stroke-width="6.64603" stroke-miterlimit="10"/>
<path d="M75.2679 242.129C115.008 242.129 147.223 209.701 147.223 169.699C147.223 129.697 115.008 97.2686 75.2679 97.2686C35.528 97.2686 3.3125 129.697 3.3125 169.699C3.3125 209.701 35.528 242.129 75.2679 242.129Z" stroke="#E98214" stroke-width="6.64603" stroke-miterlimit="10"/>
<path d="M182 148.195C221.74 148.195 253.956 115.766 253.956 75.7643C253.956 35.7621 221.74 3.33398 182 3.33398C142.26 3.33398 110.045 35.7621 110.045 75.7643C110.045 115.766 142.26 148.195 182 148.195Z" stroke="#E98214" stroke-width="6.64603" stroke-miterlimit="10"/>
<path d="M182 242.129C221.74 242.129 253.956 209.701 253.956 169.699C253.956 129.697 221.74 97.2686 182 97.2686C142.26 97.2686 110.045 129.697 110.045 169.699C110.045 209.701 142.26 242.129 182 242.129Z" stroke="#E98214" stroke-width="6.64603" stroke-miterlimit="10"/>
<path d="M288.733 148.195C328.473 148.195 360.688 115.766 360.688 75.7643C360.688 35.7621 328.473 3.33398 288.733 3.33398C248.993 3.33398 216.777 35.7621 216.777 75.7643C216.777 115.766 248.993 148.195 288.733 148.195Z" stroke="#E98214" stroke-width="6.64603" stroke-miterlimit="10"/>
<path d="M288.733 242.129C328.473 242.129 360.688 209.701 360.688 169.699C360.688 129.697 328.473 97.2686 288.733 97.2686C248.993 97.2686 216.777 129.697 216.777 169.699C216.777 209.701 248.993 242.129 288.733 242.129Z" stroke="#E98214" stroke-width="6.64603" stroke-miterlimit="10"/>
</g>
<defs>
<clipPath id="clip0_249_739">
<rect width="364" height="245.463" fill="white"/>
</clipPath>
</defs>
</svg>
