<svg width="282" height="250" viewBox="0 0 282 250" fill="none" xmlns="http://www.w3.org/2000/svg">
<g clip-path="url(#clip0_249_736)">
<path d="M279.336 70.2859C268.321 30.8702 225.701 -0.620937 184.233 -0.000760483C164.362 0.343782 147.516 7.92372 136.933 21.4298C136.285 22.2567 135.709 23.0836 135.061 23.9105C127.501 27.4937 121.022 32.593 115.982 39.0704C115.334 39.8973 114.758 40.7242 114.111 41.5511C106.551 45.1343 100.072 50.2335 95.0321 56.7109C94.3842 57.5378 93.8082 58.3647 93.1603 59.1916C85.6009 62.7749 79.1215 67.8741 74.0819 74.3515C73.434 75.1784 72.858 76.0053 72.2101 76.8322C64.6507 80.4155 58.1713 85.5147 53.1317 91.9921C52.4838 92.819 51.9078 93.6459 51.2599 94.4728C43.7005 98.056 37.2211 103.155 32.1815 109.633C31.5336 110.46 30.9576 111.286 30.3097 112.113C22.7503 115.697 16.2709 120.796 11.2313 127.273C0.21622 141.331 -2.80752 159.936 2.66401 179.713C13.6071 218.715 55.4355 249.999 96.472 249.999C137.509 249.999 97.336 249.999 97.7679 249.999C98.9198 249.999 100.072 249.999 101.224 249.861C120.086 248.759 135.925 240.834 145.86 227.604C146.22 227.053 146.652 226.57 147.012 226.019C154.931 222.229 161.698 216.785 166.81 209.963C167.17 209.412 167.602 208.93 167.962 208.379C175.881 204.589 182.649 199.145 187.76 192.323C188.12 191.772 188.552 191.289 188.912 190.738C196.831 186.948 203.599 181.504 208.71 174.682C209.07 174.131 209.502 173.649 209.862 173.097C217.782 169.307 224.549 163.864 229.661 157.042C230.021 156.49 230.453 156.008 230.813 155.457C238.732 151.667 245.499 146.223 250.611 139.401C250.971 138.85 251.403 138.367 251.763 137.816C259.682 134.026 266.45 128.582 271.561 121.761C282.072 107.772 284.88 89.5114 279.48 70.217L279.336 70.2859ZM248.235 134.164C245.211 135.542 241.972 136.645 238.66 137.472C240.964 127.618 240.604 116.73 237.436 105.567C226.421 66.1514 183.801 34.6602 142.332 35.2804C139.524 35.2804 136.789 35.4871 134.125 35.8317C135.277 32.9375 136.717 30.1812 138.444 27.5626C145.788 24.255 154.211 22.4634 163.354 22.3256C163.786 22.3256 164.146 22.3256 164.578 22.3256C203.455 22.3256 243.196 52.0251 253.563 89.1668C258.242 105.843 256.298 121.692 248.163 134.164H248.235ZM217.71 155.112C218.502 151.529 219.006 147.877 219.15 144.087C220.157 144.087 221.093 144.087 222.101 144.087C223.109 144.087 222.965 144.087 223.397 144.087C224.549 144.087 225.701 144.087 226.853 143.949C228.437 143.88 230.093 143.673 231.676 143.536C230.525 146.43 229.085 149.117 227.429 151.736C224.405 153.114 221.165 154.216 217.854 155.043L217.71 155.112ZM196.759 172.753C197.551 169.17 198.055 165.517 198.199 161.727C199.207 161.727 200.143 161.727 201.151 161.727C202.159 161.727 202.015 161.727 202.447 161.727C203.599 161.727 204.751 161.727 205.903 161.59C207.487 161.521 209.142 161.314 210.726 161.176C209.574 164.07 208.135 166.758 206.479 169.376C203.455 170.754 200.215 171.857 196.903 172.684L196.759 172.753ZM175.809 190.393C176.601 186.81 177.105 183.158 177.249 179.368C178.257 179.368 179.193 179.368 180.201 179.368C181.209 179.368 181.065 179.368 181.497 179.368C182.649 179.368 183.801 179.368 184.952 179.23C186.536 179.161 188.192 178.955 189.776 178.817C188.624 181.711 187.184 184.398 185.528 187.017C182.505 188.395 179.265 189.498 175.953 190.325L175.809 190.393ZM154.931 208.034C155.723 204.451 156.227 200.799 156.371 197.009C157.379 197.009 158.315 197.009 159.323 197.009C160.331 197.009 160.187 197.009 160.619 197.009C161.77 197.009 162.922 197.009 164.074 196.871C165.73 196.802 167.314 196.595 168.898 196.457C167.746 199.352 166.306 202.039 164.65 204.657C161.626 206.036 158.387 207.138 155.075 207.965L154.931 208.034ZM121.814 227.535C120.734 227.535 119.654 227.604 118.574 227.673C79.2655 228.362 38.8049 198.318 28.3658 160.901C23.6862 144.156 25.6301 128.307 33.7654 115.834C36.7891 114.456 39.9568 113.423 43.3405 112.527C41.0367 122.381 41.3967 133.199 44.5644 144.431C55.5075 183.434 97.3359 214.718 138.372 214.718C179.409 214.718 139.236 214.718 139.668 214.718C140.82 214.718 141.972 214.718 143.124 214.58C144.78 214.511 146.364 214.305 147.948 214.167C146.796 217.061 145.356 219.748 143.7 222.367C137.221 225.261 129.877 227.053 121.958 227.535H121.814ZM142.764 209.895C141.684 209.895 140.604 209.963 139.524 210.032C100.216 210.721 59.7551 180.677 49.316 143.26C46.1483 131.959 46.0043 121.14 48.7401 111.424C51.9798 110.942 55.2915 110.597 58.7472 110.528C59.1792 110.528 59.5392 110.528 59.9711 110.528C60.9071 110.528 61.915 110.528 62.8509 110.528C63.0669 115.766 63.9308 121.209 65.5147 126.722C75.7378 163.243 113.103 193.012 151.475 196.664C151.331 200.936 150.683 205.14 149.604 209.068C147.372 209.412 145.14 209.688 142.836 209.826L142.764 209.895ZM64.2908 94.8862C63.4988 98.4006 62.9949 102.122 62.8509 105.843C61.483 105.843 60.0431 105.774 58.6752 105.843C55.8675 105.843 53.1317 106.049 50.4679 106.394C51.6198 103.5 53.0597 100.743 54.7876 98.1249C57.8113 96.7468 60.979 95.7131 64.3628 94.8173L64.2908 94.8862ZM85.241 77.2457C84.4491 80.76 83.9451 84.481 83.8011 88.2021C82.4332 88.2021 80.9933 88.1332 79.6255 88.2021C76.8177 88.2021 74.0819 88.4088 71.4182 88.7534C72.5701 85.8592 74.0099 83.1029 75.7378 80.4844C78.7615 79.1062 81.9293 78.0726 85.313 77.1768L85.241 77.2457ZM106.191 59.6051C105.399 63.1194 104.895 66.8405 104.751 70.5615C103.383 70.5615 101.944 70.4926 100.576 70.5615C97.7679 70.5615 95.0322 70.7683 92.3684 71.1128C93.5203 68.2187 94.9602 65.4623 96.688 62.8438C99.7117 61.4656 102.879 60.432 106.263 59.5362L106.191 59.6051ZM127.069 41.9645C126.277 45.4788 125.774 49.1999 125.63 52.921C124.262 52.921 122.822 52.8521 121.454 52.921C118.646 52.921 115.91 53.1277 113.247 53.4722C114.398 50.5781 115.838 47.8217 117.566 45.2032C120.59 43.825 123.758 42.7914 127.141 41.8956L127.069 41.9645ZM190.856 142.089C192.224 147.05 193.088 151.942 193.304 156.766C186.32 156.077 179.337 154.423 172.57 152.011C162.922 126.309 139.956 104.74 113.463 94.5417C112.959 93.1635 112.527 91.7854 112.167 90.3383C110.799 85.3769 109.935 80.4844 109.719 75.7297C116.702 76.4188 123.686 78.0726 130.453 80.4844C140.1 106.187 163.066 127.756 189.56 137.954C190.064 139.332 190.496 140.71 190.856 142.157V142.089ZM169.906 159.66C171.274 164.622 172.138 169.514 172.354 174.338C165.37 173.649 158.387 171.995 151.619 169.583C141.972 143.88 119.006 122.312 92.5124 112.113C92.0084 110.735 91.5764 109.357 91.2165 107.91C89.8486 102.949 88.9847 98.056 88.7687 93.3013C95.7521 93.9904 102.735 95.6442 109.503 98.056C119.15 123.759 142.116 145.327 168.61 155.526C169.114 156.904 169.546 158.282 169.906 159.729V159.66ZM148.956 177.301C150.323 182.262 151.187 187.155 151.403 191.978C115.118 188.326 79.9134 160.143 70.2663 125.551C68.8984 120.589 68.0344 115.697 67.8185 110.942C74.8019 111.631 81.7853 113.285 88.5527 115.697C98.1999 141.399 121.166 162.968 147.66 173.166C148.164 174.544 148.596 175.923 148.956 177.37V177.301ZM94.8882 118.177C116.918 127.824 135.925 145.741 145.284 167.102C123.254 157.455 104.247 139.539 94.8882 118.177ZM115.838 100.537C137.868 110.184 156.875 128.1 166.234 149.462C144.204 139.815 125.198 121.898 115.838 100.537ZM136.717 82.8962C158.747 92.5434 177.753 110.46 187.112 131.821C165.082 122.174 146.076 104.258 136.717 82.8962ZM134.341 76.8322C133.837 75.454 133.405 74.0759 133.045 72.6288C131.677 67.6674 130.813 62.7749 130.597 58.0202C166.81 61.6723 202.087 89.8559 211.734 124.448C213.102 129.409 213.966 134.302 214.182 139.125C207.199 138.436 200.215 136.783 193.448 134.371C183.801 108.668 160.835 87.0996 134.341 76.9011V76.8322ZM121.526 57.6067C121.958 57.6067 122.318 57.6067 122.75 57.6067C123.686 57.6067 124.694 57.6067 125.63 57.6067C125.846 62.8438 126.709 68.2876 128.293 73.8002C128.365 74.1448 128.509 74.4204 128.581 74.765C122.39 72.8355 116.054 71.4574 109.647 70.8372C109.791 66.5648 110.439 62.3614 111.519 58.4336C114.758 57.9513 118.07 57.6067 121.526 57.5378V57.6067ZM100.576 75.2473C101.008 75.2473 101.368 75.2473 101.8 75.2473C102.735 75.2473 103.743 75.2473 104.679 75.2473C104.895 80.4844 105.759 85.9281 107.343 91.4408C107.415 91.7853 107.559 92.061 107.631 92.4055C101.44 90.4761 95.1041 89.0979 88.6967 88.4777C88.8407 84.2054 89.4886 80.002 90.5685 76.0742C93.8083 75.5919 97.12 75.2473 100.576 75.1784V75.2473ZM79.6974 92.8879C80.1294 92.8879 80.4894 92.8879 80.9213 92.8879C81.8573 92.8879 82.8652 92.8879 83.8011 92.8879C84.0171 98.1249 84.881 103.569 86.4649 109.081C86.5369 109.426 86.6809 109.702 86.7529 110.046C80.5614 108.117 74.2259 106.738 67.8185 106.118C67.9624 101.846 68.6104 97.6426 69.6903 93.7148C72.93 93.2324 76.2417 92.8879 79.6974 92.819V92.8879ZM163.714 192.254C162.634 192.254 161.554 192.323 160.475 192.392C159.107 192.392 157.739 192.392 156.299 192.392C156.083 187.155 155.219 181.711 153.707 176.198C153.635 175.923 153.491 175.578 153.419 175.302C159.611 177.232 165.946 178.61 172.354 179.161C172.21 183.434 171.562 187.637 170.482 191.565C168.25 191.909 166.018 192.185 163.714 192.323V192.254ZM184.593 174.613C183.513 174.613 182.433 174.682 181.353 174.751C179.985 174.751 178.617 174.751 177.177 174.751C176.961 169.514 176.097 164.07 174.585 158.558C174.513 158.282 174.369 157.938 174.297 157.662C180.489 159.591 186.824 160.969 193.232 161.521C193.088 165.793 192.44 169.996 191.36 173.924C189.128 174.269 186.896 174.544 184.593 174.682V174.613ZM205.543 156.973C204.463 156.973 203.383 157.042 202.303 157.111C200.935 157.111 199.567 157.111 198.127 157.111C197.911 151.874 197.047 146.43 195.536 140.917C195.464 140.641 195.32 140.297 195.248 140.021C201.439 141.951 207.775 143.329 214.182 143.88C214.038 148.152 213.39 152.356 212.31 156.284C210.078 156.628 207.847 156.904 205.543 157.042V156.973ZM226.493 139.332C225.413 139.332 224.333 139.401 223.253 139.47C221.885 139.47 220.517 139.47 219.078 139.47C218.862 134.233 217.998 128.789 216.486 123.277C206.263 86.755 168.898 56.9866 130.525 53.3344C130.669 49.0621 131.317 44.8587 132.397 40.9309C135.637 40.4485 138.948 40.104 142.404 40.0351C142.836 40.0351 143.196 40.0351 143.628 40.0351C182.505 40.0351 222.245 69.7346 232.612 106.876C235.78 118.108 235.924 128.996 233.188 138.643C230.957 138.988 228.725 139.263 226.421 139.401L226.493 139.332ZM130.453 32.1106C129.733 33.6266 129.157 35.2115 128.581 36.7275C126.781 37.072 125.054 37.5544 123.326 38.0367C125.486 35.8317 127.861 33.8333 130.453 32.1106ZM109.503 49.7512C108.783 51.2672 108.207 52.8521 107.631 54.368C105.831 54.7126 104.103 55.1949 102.376 55.6773C104.535 53.4722 106.911 51.4739 109.503 49.7512ZM88.5527 67.3917C87.8328 68.9077 87.2568 70.4926 86.6809 72.0086C84.881 72.3532 83.1532 72.8355 81.4253 73.3179C83.5851 71.1128 85.9609 69.1145 88.5527 67.3917ZM67.6025 85.0323C66.8825 86.5483 66.3066 88.1332 65.7306 89.6492C63.9308 89.9937 62.2029 90.4761 60.4751 90.9585C62.6349 88.7534 65.0107 86.755 67.6025 85.0323ZM46.7243 102.673C46.0043 104.189 45.4284 105.774 44.8524 107.29C43.0526 107.634 41.3247 108.117 39.5969 108.599C41.7567 106.394 44.1325 104.396 46.7243 102.673ZM100.864 245.107C99.7837 245.107 98.7038 245.176 97.6239 245.245C58.3153 245.934 17.8547 215.89 7.41561 178.472C2.30404 160.143 5.03981 142.984 15.1909 130.098C18.1427 126.309 21.7424 123.001 25.7021 120.313C20.1585 132.579 19.3666 146.981 23.5422 162.072C34.4853 201.074 76.3137 232.359 117.35 232.359C158.387 232.359 118.214 232.359 118.646 232.359C119.798 232.359 120.95 232.359 122.102 232.221C127.573 231.876 132.829 230.981 137.725 229.533C128.653 238.767 115.766 244.211 100.864 245.107ZM151.619 217.819C152.267 216.303 152.915 214.787 153.419 213.202C155.219 212.858 156.947 212.375 158.675 211.893C156.515 214.098 154.139 216.096 151.547 217.819H151.619ZM172.498 200.178C173.145 198.662 173.793 197.146 174.297 195.562C176.097 195.217 177.825 194.735 179.553 194.252C177.393 196.457 175.017 198.456 172.426 200.178H172.498ZM193.448 182.538C194.096 181.022 194.744 179.506 195.248 177.921C197.047 177.576 198.775 177.094 200.503 176.612C198.343 178.817 195.968 180.815 193.376 182.538H193.448ZM214.398 164.966C215.046 163.45 215.694 161.934 216.198 160.349C217.998 160.005 219.726 159.522 221.453 159.04C219.294 161.245 216.918 163.243 214.326 164.966H214.398ZM235.348 147.326C235.996 145.81 236.644 144.294 237.148 142.709C238.948 142.364 240.676 141.882 242.404 141.399C240.244 143.605 237.868 145.603 235.276 147.326H235.348ZM267.385 119.073C264.29 123.208 260.546 126.722 256.226 129.685C261.77 117.419 262.562 103.017 258.314 87.9265C247.299 48.5108 204.679 17.0196 163.21 17.6398C156.443 17.7776 150.035 18.6734 144.132 20.3962C153.851 10.4733 167.89 4.96065 184.233 4.68502C184.665 4.68502 185.024 4.68502 185.456 4.68502C224.333 4.68502 264.074 34.3846 274.441 71.5263C279.408 89.3736 276.889 106.256 267.313 119.073H267.385Z" fill="#E98214"/>
</g>
<defs>
<clipPath id="clip0_249_736">
<rect width="282" height="250" fill="white"/>
</clipPath>
</defs>
</svg>
