<svg width="332" height="250" viewBox="0 0 332 250" fill="none" xmlns="http://www.w3.org/2000/svg">
<g clip-path="url(#clip0_246_2608)">
<path d="M122.878 83.2246C144.589 83.2246 162.189 65.5593 162.189 43.7681C162.189 21.9768 144.589 4.31152 122.878 4.31152C101.167 4.31152 83.5664 21.9768 83.5664 43.7681C83.5664 65.5593 101.167 83.2246 122.878 83.2246Z" fill="#E98214" stroke="#E98214" stroke-width="8" stroke-miterlimit="10"/>
<path d="M122.878 162.789C144.589 162.789 162.189 145.124 162.189 123.333C162.189 101.541 144.589 83.876 122.878 83.876C101.167 83.876 83.5664 101.541 83.5664 123.333C83.5664 145.124 101.167 162.789 122.878 162.789Z" fill="#E98214" stroke="#E98214" stroke-width="8" stroke-miterlimit="10"/>
<path d="M123.202 242.922C144.913 242.922 162.514 225.257 162.514 203.465C162.514 181.674 144.913 164.009 123.202 164.009C101.491 164.009 83.8906 181.674 83.8906 203.465C83.8906 225.257 101.491 242.922 123.202 242.922Z" stroke="#E98214" stroke-width="8" stroke-miterlimit="10"/>
<path d="M42.5537 82.167C64.2649 82.167 81.8652 64.5017 81.8652 42.7105C81.8652 20.9192 64.2649 3.25391 42.5537 3.25391C20.8426 3.25391 3.24219 20.9192 3.24219 42.7105C3.24219 64.5017 20.8426 82.167 42.5537 82.167Z" stroke="#E98214" stroke-width="8" stroke-miterlimit="10"/>
<path d="M43.6084 162.545C65.3196 162.545 82.9199 144.88 82.9199 123.088C82.9199 101.297 65.3196 83.6318 43.6084 83.6318C21.8972 83.6318 4.29688 101.297 4.29688 123.088C4.29688 144.88 21.8972 162.545 43.6084 162.545Z" stroke="#E98214" stroke-width="8" stroke-miterlimit="10"/>
<path d="M44.7412 242.922C66.4524 242.922 84.0527 225.257 84.0527 203.465C84.0527 181.674 66.4524 164.009 44.7412 164.009C23.0301 164.009 5.42969 181.674 5.42969 203.465C5.42969 225.257 23.0301 242.922 44.7412 242.922Z" stroke="#E98214" stroke-width="8" stroke-miterlimit="10"/>
<path d="M203.933 82.8184C225.644 82.8184 243.244 65.1531 243.244 43.3618C243.244 21.5706 225.644 3.90527 203.933 3.90527C182.221 3.90527 164.621 21.5706 164.621 43.3618C164.621 65.1531 182.221 82.8184 203.933 82.8184Z" stroke="#E98214" stroke-width="8" stroke-miterlimit="10"/>
<path d="M205.069 163.195C226.78 163.195 244.381 145.53 244.381 123.739C244.381 101.948 226.78 84.2822 205.069 84.2822C183.358 84.2822 165.758 101.948 165.758 123.739C165.758 145.53 183.358 163.195 205.069 163.195Z" stroke="#E98214" stroke-width="8" stroke-miterlimit="10"/>
<path d="M206.122 243.573C227.833 243.573 245.434 225.908 245.434 204.117C245.434 182.325 227.833 164.66 206.122 164.66C184.411 164.66 166.811 182.325 166.811 204.117C166.811 225.908 184.411 243.573 206.122 243.573Z" stroke="#E98214" stroke-width="8" stroke-miterlimit="10"/>
<path d="M287.177 85.9912C308.888 85.9912 326.488 68.3259 326.488 46.5347C326.488 24.7434 308.888 7.07812 287.177 7.07812C265.466 7.07812 247.865 24.7434 247.865 46.5347C247.865 68.3259 265.466 85.9912 287.177 85.9912Z" stroke="#E98214" stroke-width="8" stroke-miterlimit="10"/>
<path d="M288.312 166.368C310.023 166.368 327.623 148.703 327.623 126.912C327.623 105.12 310.023 87.4551 288.312 87.4551C266.6 87.4551 249 105.12 249 126.912C249 148.703 266.6 166.368 288.312 166.368Z" stroke="#E98214" stroke-width="8" stroke-miterlimit="10"/>
<path d="M289.446 246.746C311.157 246.746 328.758 229.081 328.758 207.29C328.758 185.498 311.157 167.833 289.446 167.833C267.735 167.833 250.135 185.498 250.135 207.29C250.135 229.081 267.735 246.746 289.446 246.746Z" stroke="#E98214" stroke-width="8" stroke-miterlimit="10"/>
</g>
<defs>
<clipPath id="clip0_246_2608">
<rect width="332" height="250" fill="white"/>
</clipPath>
</defs>
</svg>
