<svg width="48" height="48" viewBox="0 0 48 48" fill="none" xmlns="http://www.w3.org/2000/svg">
<rect x="0.5" y="0.5" width="47" height="47" rx="23.5" fill="url(#paint0_linear_2005_242)"/>
<rect x="0.5" y="0.5" width="47" height="47" rx="23.5" stroke="url(#paint1_linear_2005_242)"/>
<g clip-path="url(#clip0_2005_242)">
<path d="M19.4996 33.7984C28.5996 33.7984 33.4996 26.2984 33.4996 19.7984C33.4996 19.5984 33.4996 19.3984 33.4996 19.1984C34.4996 18.4984 35.2996 17.5984 35.9996 16.6984C35.0996 17.0984 34.1996 17.3984 33.1996 17.4984C34.1996 16.8984 34.9996 15.8984 35.3996 14.7984C34.3996 15.3984 33.3996 15.7984 32.2996 15.9984C31.3996 14.9984 30.0996 14.3984 28.6996 14.3984C25.9996 14.3984 23.7996 16.5984 23.7996 19.2984C23.7996 19.6984 23.7996 20.0984 23.8996 20.3984C19.6996 20.0984 16.0996 18.0984 13.6996 15.0984C13.1996 15.8984 12.9996 16.6984 12.9996 17.5984C12.9996 19.2984 13.8996 20.7984 15.1996 21.6984C14.3996 21.6984 13.5996 21.4984 12.9996 21.0984C12.9996 21.0984 12.9996 21.0984 12.9996 21.1984C12.9996 23.5984 14.6996 25.5984 16.9996 25.9984C16.5996 26.0984 16.1996 26.1984 15.6996 26.1984C15.3996 26.1984 15.0996 26.1984 14.7996 26.0984C15.3996 28.0984 17.1996 29.4984 19.3996 29.4984C17.6996 30.7984 15.5996 31.5984 13.2996 31.5984C12.8996 31.5984 12.4996 31.5984 12.0996 31.4984C14.1996 32.8984 16.7996 33.7984 19.4996 33.7984Z" fill="#FDF3E8"/>
</g>
<defs>
<linearGradient id="paint0_linear_2005_242" x1="12.1001" y1="-183.281" x2="63.047" y2="-179.918" gradientUnits="userSpaceOnUse">
<stop offset="0.0487" stop-color="#170D02" stop-opacity="0.57"/>
<stop offset="0.7588" stop-color="#071A2C"/>
</linearGradient>
<linearGradient id="paint1_linear_2005_242" x1="34.4252" y1="10.8178" x2="11.9662" y2="39.7646" gradientUnits="userSpaceOnUse">
<stop stop-color="#9DE8EE"/>
<stop offset="0.0001" stop-color="#9DE8EE"/>
<stop offset="0.490049" stop-color="#FA7C0B"/>
<stop offset="1" stop-color="#9F8CED"/>
</linearGradient>
<clipPath id="clip0_2005_242">
<rect width="24" height="24" fill="white" transform="translate(12 12)"/>
</clipPath>
</defs>
</svg>
