<svg width="20" height="20" viewBox="0 0 20 20" fill="none" xmlns="http://www.w3.org/2000/svg">
<path d="M17.7362 1.76383C15.3844 -0.587942 11.5714 -0.587942 9.21967 1.76383L6.61012 4.37337C6.31723 4.66626 6.31723 5.14114 6.61012 5.43403C6.90302 5.72692 7.37789 5.72692 7.67078 5.43403L10.2803 2.82449C12.0463 1.0585 14.9095 1.0585 16.6755 2.82449C18.4415 4.59047 18.4415 7.45369 16.6755 9.21967L14.066 11.8292C13.7731 12.1221 13.7731 12.597 14.066 12.8899C14.3589 13.1828 14.8337 13.1828 15.1266 12.8899L17.7362 10.2803C20.0879 7.92856 20.0879 4.11559 17.7362 1.76383Z" fill="url(#paint0_linear_246_2535)"/>
<path d="M5.43403 7.67078C5.72692 7.37789 5.72692 6.90302 5.43403 6.61012C5.14114 6.31723 4.66626 6.31723 4.37337 6.61012L1.76383 9.21967C-0.587942 11.5714 -0.587942 15.3844 1.76383 17.7362C4.11559 20.0879 7.92856 20.0879 10.2803 17.7362L12.8899 15.1266C13.1828 14.8337 13.1828 14.3589 12.8899 14.066C12.597 13.7731 12.1221 13.7731 11.8292 14.066L9.21967 16.6755C7.45369 18.4415 4.59047 18.4415 2.82449 16.6755C1.0585 14.9095 1.0585 12.0463 2.82449 10.2803L5.43403 7.67078Z" fill="url(#paint1_linear_246_2535)"/>
<path d="M12.7803 7.78033C13.0732 7.48744 13.0732 7.01256 12.7803 6.71967C12.4874 6.42678 12.0126 6.42678 11.7197 6.71967L6.71967 11.7197C6.42678 12.0126 6.42678 12.4874 6.71967 12.7803C7.01256 13.0732 7.48744 13.0732 7.78033 12.7803L12.7803 7.78033Z" fill="url(#paint2_linear_246_2535)"/>
<defs>
<linearGradient id="paint0_linear_246_2535" x1="4.91567" y1="-74.458" x2="25.6128" y2="-73.0916" gradientUnits="userSpaceOnUse">
<stop offset="0.0487" stop-color="#170D02" stop-opacity="0.57"/>
<stop offset="0.7588" stop-color="#071A2C"/>
</linearGradient>
<linearGradient id="paint1_linear_246_2535" x1="4.91567" y1="-74.458" x2="25.6128" y2="-73.0916" gradientUnits="userSpaceOnUse">
<stop offset="0.0487" stop-color="#170D02" stop-opacity="0.57"/>
<stop offset="0.7588" stop-color="#071A2C"/>
</linearGradient>
<linearGradient id="paint2_linear_246_2535" x1="4.91567" y1="-74.458" x2="25.6128" y2="-73.0916" gradientUnits="userSpaceOnUse">
<stop offset="0.0487" stop-color="#170D02" stop-opacity="0.57"/>
<stop offset="0.7588" stop-color="#071A2C"/>
</linearGradient>
</defs>
</svg>
